<svg xmlns="http://www.w3.org/2000/svg" width="14" height="15">
    <path fill="#FFF" fill-rule="evenodd" d="M12.444 1.5H9.193A2.336 2.336 0 0 0 7 0C5.989 0 5.133.63 4.807 1.5H1.556C.7 1.5 0 2.175 0 3v10.5c0 .825.7 1.5 1.556 1.5h10.888C13.3 15 14 14.325 14 13.5V3c0-.825-.7-1.5-1.556-1.5zM7 1.5c.428 0 .778.338.778.75S7.428 3 7 3c-.428 0-.778-.338-.778-.75s.35-.75.778-.75zm0 3c1.291 0 2.333 1.005 2.333 2.25S8.291 9 7 9C5.709 9 4.667 7.995 4.667 6.75S5.709 4.5 7 4.5zm4.667 9H2.333v-1.05c0-1.5 3.111-2.325 4.667-2.325 1.556 0 4.667.825 4.667 2.325v1.05z"/>
</svg>
