<svg xmlns="http://www.w3.org/2000/svg" width="25" height="24">
    <path fill="#FFF" fill-rule="evenodd" d="M23.924 11.382a.99.99 0 0 1-.217.326l-2.999 2.999a.993.993 0 0 1-.707.293.999.999 0 0 1-.707-1.707L20.587 12h-5.586a1 1 0 1 1 0-2h5.586l-1.293-1.293a.999.999 0 1 1 1.414-1.414l2.999 2.999a1.001 1.001 0 0 1 .217 1.09zM17.001 8a1 1 0 0 1-1-1V2H7.814l3.473 1.042c.423.127.713.517.713.958v16h4.001v-5a1 1 0 1 1 2 0v6a1 1 0 0 1-1 1H12v1a1.001 1.001 0 0 1-1.196.98l-10-2A1 1 0 0 1 0 21V1C0 .98.013.962.014.942.015.913.006.885.011.855.023.771.058.697.09.621.101.593.104.564.118.537A.991.991 0 0 1 .384.221C.392.215.395.204.403.198.424.182.451.181.473.167A1.006 1.006 0 0 1 .897.019C.932.015.964 0 1 0h16.001a1 1 0 0 1 1 1v6a1 1 0 0 1-1 1z"/>
</svg>
