<svg xmlns="http://www.w3.org/2000/svg" width="18" height="18">
    <path fill="#37405A" fill-rule="evenodd" d="M15.87 9.882c.037-.288.064-.576.064-.882 0-.306-.027-.594-.064-.882l1.95-1.485a.446.446 0 0 0 .111-.576l-1.849-3.114a.47.47 0 0 0-.563-.198l-2.302.9a6.803 6.803 0 0 0-1.562-.882L11.304.378A.447.447 0 0 0 10.851 0H7.154a.447.447 0 0 0-.453.378L6.35 2.763a7.13 7.13 0 0 0-1.562.882l-2.302-.9a.456.456 0 0 0-.563.198L.074 6.057a.436.436 0 0 0 .111.576l1.95 1.485A6.948 6.948 0 0 0 2.07 9c0 .297.028.594.065.882l-1.95 1.485a.446.446 0 0 0-.111.576l1.849 3.114a.47.47 0 0 0 .563.198l2.302-.9c.48.36.998.657 1.562.882l.351 2.385a.447.447 0 0 0 .453.378h3.697a.447.447 0 0 0 .453-.378l.351-2.385a7.154 7.154 0 0 0 1.562-.882l2.302.9c.212.081.452 0 .563-.198l1.849-3.114a.446.446 0 0 0-.111-.576l-1.95-1.485zM9.002 12.15c-1.783 0-3.235-1.413-3.235-3.15 0-1.737 1.452-3.15 3.235-3.15 1.784 0 3.235 1.413 3.235 3.15 0 1.737-1.451 3.15-3.235 3.15z"/>
</svg>
