<svg xmlns="http://www.w3.org/2000/svg" width="14" height="14">
    <path fill="#FFF" fill-rule="evenodd" d="M12.343 7.686c.029-.224.05-.448.05-.686 0-.238-.021-.462-.05-.686l1.517-1.155a.347.347 0 0 0 .086-.448l-1.438-2.422c-.086-.154-.28-.21-.438-.154l-1.79.7a5.282 5.282 0 0 0-1.215-.686L8.792.294A.348.348 0 0 0 8.44 0H5.564c-.18 0-.33.126-.352.294l-.273 1.855a5.554 5.554 0 0 0-1.215.686l-1.79-.7a.356.356 0 0 0-.439.154L.058 4.711a.338.338 0 0 0 .086.448l1.517 1.155A5.363 5.363 0 0 0 1.61 7c0 .231.022.462.051.686L.144 8.841a.346.346 0 0 0-.086.448l1.437 2.422c.087.154.281.21.439.154l1.79-.7c.374.28.776.511 1.215.686l.273 1.855a.348.348 0 0 0 .352.294H8.44c.179 0 .33-.126.352-.294l.273-1.855a5.554 5.554 0 0 0 1.215-.686l1.79.7c.165.063.352 0 .438-.154l1.438-2.422a.347.347 0 0 0-.086-.448l-1.517-1.155zM7.002 9.45C5.614 9.45 4.486 8.351 4.486 7c0-1.351 1.128-2.45 2.516-2.45 1.387 0 2.516 1.099 2.516 2.45 0 1.351-1.129 2.45-2.516 2.45z"/>
</svg>
